<?xml version="1.0" encoding="utf-8"?>
<!-- Generator: Adobe Illustrator 18.0.0, SVG Export Plug-In . SVG Version: 6.00 Build 0)  -->
<!DOCTYPE svg PUBLIC "-//W3C//DTD SVG 1.1//EN" "http://www.w3.org/Graphics/SVG/1.1/DTD/svg11.dtd">
<svg version="1.1" id="Layer_1" xmlns="http://www.w3.org/2000/svg" xmlns:xlink="http://www.w3.org/1999/xlink" x="0px" y="0px"
	 viewBox="0 0 369.8 389.7" enable-background="new 0 0 369.8 389.7" xml:space="preserve">
<g>
	<g>
		<g>
			<g>
				<path fill="#1C75BC" d="M181.7,194.8l-21.4-174c6.6-0.8,14.7-1.3,21.4-1.3V194.8z"/>
			</g>
		</g>
		<g>
			<g>
				<path fill="#262262" stroke="#000000" stroke-width="0.5" stroke-miterlimit="10" d="M181.7,194.8L157.4,21.3
					c1.2-0.2,1.9-0.3,3-0.4L181.7,194.8z"/>
			</g>
		</g>
		<g>
			<g>
				<path fill="#00AEEF" d="M181.7,194.8L14.1,246.1C-14.2,153.5,37.9,55.5,130.5,27.2c9.1-2.8,17.5-4.6,26.8-6L181.7,194.8z"/>
			</g>
		</g>
		<g>
			<g>
				<path fill="#21409A" d="M181.7,194.8l39.4-170.8c94.3,21.8,153.1,115.9,131.3,210.2c-21.8,94.3-115.9,153.1-210.2,131.3
					C79,351,33.1,308.2,14.1,246.1L181.7,194.8z"/>
			</g>
		</g>
		<g>
			<g>
				<path fill="#85B2D8" d="M181.7,194.8V19.6c14.2,0,25.6,1.3,39.4,4.5L181.7,194.8z"/>
			</g>
		</g>
	</g>
	<g>
		<g>
		</g>
		<g>
		</g>
		<g>
		</g>
		<g>
		</g>
		<g>
		</g>
	</g>
</g>
</svg>
