<?xml version="1.0" encoding="utf-8"?>
<!-- Generator: Adobe Illustrator 18.0.0, SVG Export Plug-In . SVG Version: 6.00 Build 0)  -->
<!DOCTYPE svg PUBLIC "-//W3C//DTD SVG 1.1//EN" "http://www.w3.org/Graphics/SVG/1.1/DTD/svg11.dtd">
<svg version="1.1" id="Layer_1" xmlns="http://www.w3.org/2000/svg" xmlns:xlink="http://www.w3.org/1999/xlink" x="0px" y="0px"
	 viewBox="0 0 369.8 389.7" enable-background="new 0 0 369.8 389.7" xml:space="preserve">
<g>
	<g>
		<g>
			<g>
				<path fill="#1C75BC" d="M181.7,194.8L154.3,21.7c9.4-1.5,17.9-2.2,27.4-2.2V194.8z"/>
			</g>
		</g>
		<g>
			<g>
				<path fill="#262262" stroke="#000000" stroke-width="0.5" stroke-miterlimit="10" d="M181.7,194.8L151.3,22.2
					c1-0.2,2.1-0.4,3-0.5L181.7,194.8z"/>
			</g>
		</g>
		<g>
			<g>
				<path fill="#00AEEF" d="M181.7,194.8L6.9,207C0.6,117.2,62.6,37.9,151.3,22.2L181.7,194.8z"/>
			</g>
		</g>
		<g>
			<g>
				<path fill="#21409A" d="M181.7,194.8l48.3-168.5c93,26.7,146.8,123.7,120.2,216.8c-26.7,93-123.7,146.8-216.8,120.2
					C61.4,342.6,12.1,281.8,6.9,207L181.7,194.8z"/>
			</g>
		</g>
		<g>
			<g>
				<path fill="#85B2D8" d="M181.7,194.8V19.6c17.8,0,31.2,1.9,48.3,6.8L181.7,194.8z"/>
			</g>
		</g>
	</g>
	<g>
		<g>
		</g>
		<g>
		</g>
		<g>
		</g>
		<g>
		</g>
		<g>
		</g>
	</g>
</g>
</svg>
